<svg xmlns="http://www.w3.org/2000/svg" width="745" height="101" viewBox="0 0 745 101" role="img" aria-label="Contribution heatmap">
<style>rect { stroke: rgba(0,0,0,0.04); stroke-width: 1; }</style>
<rect x="3" y="3" width="11" height="11" rx="2" ry="2" fill="#ebedf0"><title>2025-05-04: 0 contributions</title></rect>
<rect x="3" y="17" width="11" height="11" rx="2" ry="2" fill="#81c784"><title>2025-05-05: 12 contributions</title></rect>
<rect x="3" y="31" width="11" height="11" rx="2" ry="2" fill="#a5d6a7"><title>2025-05-06: 7 contributions</title></rect>
<rect x="3" y="45" width="11" height="11" rx="2" ry="2" fill="#66bb6a"><title>2025-05-07: 13 contributions</title></rect>
<rect x="3" y="59" width="11" height="11" rx="2" ry="2" fill="#a5d6a7"><title>2025-05-08: 6 contributions</title></rect>
<rect x="3" y="73" width="11" height="11" rx="2" ry="2" fill="#a5d6a7"><title>2025-05-09: 4 contributions</title></rect>
<rect x="3" y="87" width="11" height="11" rx="2" ry="2" fill="#ebedf0"><title>2025-05-10: 0 contributions</title></rect>
<rect x="17" y="3" width="11" height="11" rx="2" ry="2" fill="#ebedf0"><title>2025-05-11: 0 contributions</title></rect>
<rect x="17" y="17" width="11" height="11" rx="2" ry="2" fill="#66bb6a"><title>2025-05-12: 14 contributions</title></rect>
<rect x="17" y="31" width="11" height="11" rx="2" ry="2" fill="#a5d6a7"><title>2025-05-13: 6 contributions</title></rect>
<rect x="17" y="45" width="11" height="11" rx="2" ry="2" fill="#81c784"><title>2025-05-14: 10 contributions</title></rect>
<rect x="17" y="59" width="11" height="11" rx="2" ry="2" fill="#a5d6a7"><title>2025-05-15: 6 contributions</title></rect>
<rect x="17" y="73" width="11" height="11" rx="2" ry="2" fill="#66bb6a"><title>2025-05-16: 13 contributions</title></rect>
<rect x="17" y="87" width="11" height="11" rx="2" ry="2" fill="#ebedf0"><title>2025-05-17: 0 contributions</title></rect>
<rect x="31" y="3" width="11" height="11" rx="2" ry="2" fill="#ebedf0"><title>2025-05-18: 0 contributions</title></rect>
<rect x="31" y="17" width="11" height="11" rx="2" ry="2" fill="#81c784"><title>2025-05-19: 12 contributions</title></rect>
<rect x="31" y="31" width="11" height="11" rx="2" ry="2" fill="#a5d6a7"><title>2025-05-20: 6 contributions</title></rect>
<rect x="31" y="45" width="11" height="11" rx="2" ry="2" fill="#66bb6a"><title>2025-05-21: 13 contributions</title></rect>
<rect x="31" y="59" width="11" height="11" rx="2" ry="2" fill="#66bb6a"><title>2025-05-22: 14 contributions</title></rect>
<rect x="31" y="73" width="11" height="11" rx="2" ry="2" fill="#a5d6a7"><title>2025-05-23: 5 contributions</title></rect>
<rect x="31" y="87" width="11" height="11" rx="2" ry="2" fill="#ebedf0"><title>2025-05-24: 0 contributions</title></rect>
<rect x="45" y="3" width="11" height="11" rx="2" ry="2" fill="#ebedf0"><title>2025-05-25: 0 contributions</title></rect>
<rect x="45" y="17" width="11" height="11" rx="2" ry="2" fill="#ebedf0"><title>2025-05-26: 0 contributions</title></rect>
<rect x="45" y="31" width="11" height="11" rx="2" ry="2" fill="#ebedf0"><title>2025-05-27: 0 contributions</title></rect>
<rect x="45" y="45" width="11" height="11" rx="2" ry="2" fill="#c8e6c9"><title>2025-05-28: 3 contributions</title></rect>
<rect x="45" y="59" width="11" height="11" rx="2" ry="2" fill="#ebedf0"><title>2025-05-29: 0 contributions</title></rect>
<rect x="45" y="73" width="11" height="11" rx="2" ry="2" fill="#ebedf0"><title>2025-05-30: 0 contributions</title></rect>
<rect x="45" y="87" width="11" height="11" rx="2" ry="2" fill="#ebedf0"><title>2025-05-31: 0 contributions</title></rect>
<rect x="59" y="3" width="11" height="11" rx="2" ry="2" fill="#ebedf0"><title>2025-06-01: 0 contributions</title></rect>
<rect x="59" y="17" width="11" height="11" rx="2" ry="2" fill="#a5d6a7"><title>2025-06-02: 5 contributions</title></rect>
<rect x="59" y="31" width="11" height="11" rx="2" ry="2" fill="#c8e6c9"><title>2025-06-03: 3 contributions</title></rect>
<rect x="59" y="45" width="11" height="11" rx="2" ry="2" fill="#81c784"><title>2025-06-04: 8 contributions</title></rect>
<rect x="59" y="59" width="11" height="11" rx="2" ry="2" fill="#a5d6a7"><title>2025-06-05: 7 contributions</title></rect>
<rect x="59" y="73" width="11" height="11" rx="2" ry="2" fill="#81c784"><title>2025-06-06: 9 contributions</title></rect>
<rect x="59" y="87" width="11" height="11" rx="2" ry="2" fill="#ebedf0"><title>2025-06-07: 0 contributions</title></rect>
<rect x="73" y="3" width="11" height="11" rx="2" ry="2" fill="#ebedf0"><title>2025-06-08: 0 contributions</title></rect>
<rect x="73" y="17" width="11" height="11" rx="2" ry="2" fill="#ebedf0"><title>2025-06-09: 0 contributions</title></rect>
<rect x="73" y="31" width="11" height="11" rx="2" ry="2" fill="#66bb6a"><title>2025-06-10: 22 contributions</title></rect>
<rect x="73" y="45" width="11" height="11" rx="2" ry="2" fill="#c8e6c9"><title>2025-06-11: 3 contributions</title></rect>
<rect x="73" y="59" width="11" height="11" rx="2" ry="2" fill="#66bb6a"><title>2025-06-12: 13 contributions</title></rect>
<rect x="73" y="73" width="11" height="11" rx="2" ry="2" fill="#a5d6a7"><title>2025-06-13: 7 contributions</title></rect>
<rect x="73" y="87" width="11" height="11" rx="2" ry="2" fill="#ebedf0"><title>2025-06-14: 0 contributions</title></rect>
<rect x="87" y="3" width="11" height="11" rx="2" ry="2" fill="#ebedf0"><title>2025-06-15: 0 contributions</title></rect>
<rect x="87" y="17" width="11" height="11" rx="2" ry="2" fill="#ebedf0"><title>2025-06-16: 0 contributions</title></rect>
<rect x="87" y="31" width="11" height="11" rx="2" ry="2" fill="#a5d6a7"><title>2025-06-17: 4 contributions</title></rect>
<rect x="87" y="45" width="11" height="11" rx="2" ry="2" fill="#a5d6a7"><title>2025-06-18: 4 contributions</title></rect>
<rect x="87" y="59" width="11" height="11" rx="2" ry="2" fill="#a5d6a7"><title>2025-06-19: 7 contributions</title></rect>
<rect x="87" y="73" width="11" height="11" rx="2" ry="2" fill="#ebedf0"><title>2025-06-20: 0 contributions</title></rect>
<rect x="87" y="87" width="11" height="11" rx="2" ry="2" fill="#ebedf0"><title>2025-06-21: 0 contributions</title></rect>
<rect x="101" y="3" width="11" height="11" rx="2" ry="2" fill="#ebedf0"><title>2025-06-22: 0 contributions</title></rect>
<rect x="101" y="17" width="11" height="11" rx="2" ry="2" fill="#ebedf0"><title>2025-06-23: 0 contributions</title></rect>
<rect x="101" y="31" width="11" height="11" rx="2" ry="2" fill="#c8e6c9"><title>2025-06-24: 3 contributions</title></rect>
<rect x="101" y="45" width="11" height="11" rx="2" ry="2" fill="#a5d6a7"><title>2025-06-25: 6 contributions</title></rect>
<rect x="101" y="59" width="11" height="11" rx="2" ry="2" fill="#a5d6a7"><title>2025-06-26: 7 contributions</title></rect>
<rect x="101" y="73" width="11" height="11" rx="2" ry="2" fill="#c8e6c9"><title>2025-06-27: 2 contributions</title></rect>
<rect x="101" y="87" width="11" height="11" rx="2" ry="2" fill="#ebedf0"><title>2025-06-28: 0 contributions</title></rect>
<rect x="115" y="3" width="11" height="11" rx="2" ry="2" fill="#ebedf0"><title>2025-06-29: 0 contributions</title></rect>
<rect x="115" y="17" width="11" height="11" rx="2" ry="2" fill="#ebedf0"><title>2025-06-30: 0 contributions</title></rect>
<rect x="115" y="31" width="11" height="11" rx="2" ry="2" fill="#ebedf0"><title>2025-07-01: 0 contributions</title></rect>
<rect x="115" y="45" width="11" height="11" rx="2" ry="2" fill="#ebedf0"><title>2025-07-02: 0 contributions</title></rect>
<rect x="115" y="59" width="11" height="11" rx="2" ry="2" fill="#66bb6a"><title>2025-07-03: 17 contributions</title></rect>
<rect x="115" y="73" width="11" height="11" rx="2" ry="2" fill="#c8e6c9"><title>2025-07-04: 3 contributions</title></rect>
<rect x="115" y="87" width="11" height="11" rx="2" ry="2" fill="#ebedf0"><title>2025-07-05: 0 contributions</title></rect>
<rect x="129" y="3" width="11" height="11" rx="2" ry="2" fill="#ebedf0"><title>2025-07-06: 0 contributions</title></rect>
<rect x="129" y="17" width="11" height="11" rx="2" ry="2" fill="#ebedf0"><title>2025-07-07: 0 contributions</title></rect>
<rect x="129" y="31" width="11" height="11" rx="2" ry="2" fill="#ebedf0"><title>2025-07-08: 0 contributions</title></rect>
<rect x="129" y="45" width="11" height="11" rx="2" ry="2" fill="#81c784"><title>2025-07-09: 10 contributions</title></rect>
<rect x="129" y="59" width="11" height="11" rx="2" ry="2" fill="#c8e6c9"><title>2025-07-10: 3 contributions</title></rect>
<rect x="129" y="73" width="11" height="11" rx="2" ry="2" fill="#ebedf0"><title>2025-07-11: 0 contributions</title></rect>
<rect x="129" y="87" width="11" height="11" rx="2" ry="2" fill="#ebedf0"><title>2025-07-12: 0 contributions</title></rect>
<rect x="143" y="3" width="11" height="11" rx="2" ry="2" fill="#ebedf0"><title>2025-07-13: 0 contributions</title></rect>
<rect x="143" y="17" width="11" height="11" rx="2" ry="2" fill="#ebedf0"><title>2025-07-14: 0 contributions</title></rect>
<rect x="143" y="31" width="11" height="11" rx="2" ry="2" fill="#ebedf0"><title>2025-07-15: 0 contributions</title></rect>
<rect x="143" y="45" width="11" height="11" rx="2" ry="2" fill="#a5d6a7"><title>2025-07-16: 7 contributions</title></rect>
<rect x="143" y="59" width="11" height="11" rx="2" ry="2" fill="#c8e6c9"><title>2025-07-17: 1 contribution</title></rect>
<rect x="143" y="73" width="11" height="11" rx="2" ry="2" fill="#a5d6a7"><title>2025-07-18: 4 contributions</title></rect>
<rect x="143" y="87" width="11" height="11" rx="2" ry="2" fill="#ebedf0"><title>2025-07-19: 0 contributions</title></rect>
<rect x="157" y="3" width="11" height="11" rx="2" ry="2" fill="#ebedf0"><title>2025-07-20: 0 contributions</title></rect>
<rect x="157" y="17" width="11" height="11" rx="2" ry="2" fill="#ebedf0"><title>2025-07-21: 0 contributions</title></rect>
<rect x="157" y="31" width="11" height="11" rx="2" ry="2" fill="#a5d6a7"><title>2025-07-22: 6 contributions</title></rect>
<rect x="157" y="45" width="11" height="11" rx="2" ry="2" fill="#c8e6c9"><title>2025-07-23: 3 contributions</title></rect>
<rect x="157" y="59" width="11" height="11" rx="2" ry="2" fill="#c8e6c9"><title>2025-07-24: 3 contributions</title></rect>
<rect x="157" y="73" width="11" height="11" rx="2" ry="2" fill="#a5d6a7"><title>2025-07-25: 4 contributions</title></rect>
<rect x="157" y="87" width="11" height="11" rx="2" ry="2" fill="#ebedf0"><title>2025-07-26: 0 contributions</title></rect>
<rect x="171" y="3" width="11" height="11" rx="2" ry="2" fill="#ebedf0"><title>2025-07-27: 0 contributions</title></rect>
<rect x="171" y="17" width="11" height="11" rx="2" ry="2" fill="#ebedf0"><title>2025-07-28: 0 contributions</title></rect>
<rect x="171" y="31" width="11" height="11" rx="2" ry="2" fill="#ebedf0"><title>2025-07-29: 0 contributions</title></rect>
<rect x="171" y="45" width="11" height="11" rx="2" ry="2" fill="#ebedf0"><title>2025-07-30: 0 contributions</title></rect>
<rect x="171" y="59" width="11" height="11" rx="2" ry="2" fill="#ebedf0"><title>2025-07-31: 0 contributions</title></rect>
<rect x="171" y="73" width="11" height="11" rx="2" ry="2" fill="#ebedf0"><title>2025-08-01: 0 contributions</title></rect>
<rect x="171" y="87" width="11" height="11" rx="2" ry="2" fill="#ebedf0"><title>2025-08-02: 0 contributions</title></rect>
<rect x="185" y="3" width="11" height="11" rx="2" ry="2" fill="#ebedf0"><title>2025-08-03: 0 contributions</title></rect>
<rect x="185" y="17" width="11" height="11" rx="2" ry="2" fill="#ebedf0"><title>2025-08-04: 0 contributions</title></rect>
<rect x="185" y="31" width="11" height="11" rx="2" ry="2" fill="#ebedf0"><title>2025-08-05: 0 contributions</title></rect>
<rect x="185" y="45" width="11" height="11" rx="2" ry="2" fill="#ebedf0"><title>2025-08-06: 0 contributions</title></rect>
<rect x="185" y="59" width="11" height="11" rx="2" ry="2" fill="#ebedf0"><title>2025-08-07: 0 contributions</title></rect>
<rect x="185" y="73" width="11" height="11" rx="2" ry="2" fill="#ebedf0"><title>2025-08-08: 0 contributions</title></rect>
<rect x="185" y="87" width="11" height="11" rx="2" ry="2" fill="#ebedf0"><title>2025-08-09: 0 contributions</title></rect>
<rect x="199" y="3" width="11" height="11" rx="2" ry="2" fill="#ebedf0"><title>2025-08-10: 0 contributions</title></rect>
<rect x="199" y="17" width="11" height="11" rx="2" ry="2" fill="#c8e6c9"><title>2025-08-11: 1 contribution</title></rect>
<rect x="199" y="31" width="11" height="11" rx="2" ry="2" fill="#a5d6a7"><title>2025-08-12: 5 contributions</title></rect>
<rect x="199" y="45" width="11" height="11" rx="2" ry="2" fill="#a5d6a7"><title>2025-08-13: 5 contributions</title></rect>
<rect x="199" y="59" width="11" height="11" rx="2" ry="2" fill="#c8e6c9"><title>2025-08-14: 3 contributions</title></rect>
<rect x="199" y="73" width="11" height="11" rx="2" ry="2" fill="#ebedf0"><title>2025-08-15: 0 contributions</title></rect>
<rect x="199" y="87" width="11" height="11" rx="2" ry="2" fill="#ebedf0"><title>2025-08-16: 0 contributions</title></rect>
<rect x="213" y="3" width="11" height="11" rx="2" ry="2" fill="#ebedf0"><title>2025-08-17: 0 contributions</title></rect>
<rect x="213" y="17" width="11" height="11" rx="2" ry="2" fill="#c8e6c9"><title>2025-08-18: 1 contribution</title></rect>
<rect x="213" y="31" width="11" height="11" rx="2" ry="2" fill="#66bb6a"><title>2025-08-19: 14 contributions</title></rect>
<rect x="213" y="45" width="11" height="11" rx="2" ry="2" fill="#66bb6a"><title>2025-08-20: 13 contributions</title></rect>
<rect x="213" y="59" width="11" height="11" rx="2" ry="2" fill="#ebedf0"><title>2025-08-21: 0 contributions</title></rect>
<rect x="213" y="73" width="11" height="11" rx="2" ry="2" fill="#c8e6c9"><title>2025-08-22: 3 contributions</title></rect>
<rect x="213" y="87" width="11" height="11" rx="2" ry="2" fill="#ebedf0"><title>2025-08-23: 0 contributions</title></rect>
<rect x="227" y="3" width="11" height="11" rx="2" ry="2" fill="#ebedf0"><title>2025-08-24: 0 contributions</title></rect>
<rect x="227" y="17" width="11" height="11" rx="2" ry="2" fill="#ebedf0"><title>2025-08-25: 0 contributions</title></rect>
<rect x="227" y="31" width="11" height="11" rx="2" ry="2" fill="#81c784"><title>2025-08-26: 9 contributions</title></rect>
<rect x="227" y="45" width="11" height="11" rx="2" ry="2" fill="#66bb6a"><title>2025-08-27: 23 contributions</title></rect>
<rect x="227" y="59" width="11" height="11" rx="2" ry="2" fill="#66bb6a"><title>2025-08-28: 16 contributions</title></rect>
<rect x="227" y="73" width="11" height="11" rx="2" ry="2" fill="#a5d6a7"><title>2025-08-29: 6 contributions</title></rect>
<rect x="227" y="87" width="11" height="11" rx="2" ry="2" fill="#ebedf0"><title>2025-08-30: 0 contributions</title></rect>
<rect x="241" y="3" width="11" height="11" rx="2" ry="2" fill="#ebedf0"><title>2025-08-31: 0 contributions</title></rect>
<rect x="241" y="17" width="11" height="11" rx="2" ry="2" fill="#ebedf0"><title>2025-09-01: 0 contributions</title></rect>
<rect x="241" y="31" width="11" height="11" rx="2" ry="2" fill="#a5d6a7"><title>2025-09-02: 4 contributions</title></rect>
<rect x="241" y="45" width="11" height="11" rx="2" ry="2" fill="#66bb6a"><title>2025-09-03: 15 contributions</title></rect>
<rect x="241" y="59" width="11" height="11" rx="2" ry="2" fill="#ebedf0"><title>2025-09-04: 0 contributions</title></rect>
<rect x="241" y="73" width="11" height="11" rx="2" ry="2" fill="#ebedf0"><title>2025-09-05: 0 contributions</title></rect>
<rect x="241" y="87" width="11" height="11" rx="2" ry="2" fill="#ebedf0"><title>2025-09-06: 0 contributions</title></rect>
<rect x="255" y="3" width="11" height="11" rx="2" ry="2" fill="#ebedf0"><title>2025-09-07: 0 contributions</title></rect>
<rect x="255" y="17" width="11" height="11" rx="2" ry="2" fill="#ebedf0"><title>2025-09-08: 0 contributions</title></rect>
<rect x="255" y="31" width="11" height="11" rx="2" ry="2" fill="#ebedf0"><title>2025-09-09: 0 contributions</title></rect>
<rect x="255" y="45" width="11" height="11" rx="2" ry="2" fill="#ebedf0"><title>2025-09-10: 0 contributions</title></rect>
<rect x="255" y="59" width="11" height="11" rx="2" ry="2" fill="#ebedf0"><title>2025-09-11: 0 contributions</title></rect>
<rect x="255" y="73" width="11" height="11" rx="2" ry="2" fill="#ebedf0"><title>2025-09-12: 0 contributions</title></rect>
<rect x="255" y="87" width="11" height="11" rx="2" ry="2" fill="#ebedf0"><title>2025-09-13: 0 contributions</title></rect>
<rect x="269" y="3" width="11" height="11" rx="2" ry="2" fill="#ebedf0"><title>2025-09-14: 0 contributions</title></rect>
<rect x="269" y="17" width="11" height="11" rx="2" ry="2" fill="#ebedf0"><title>2025-09-15: 0 contributions</title></rect>
<rect x="269" y="31" width="11" height="11" rx="2" ry="2" fill="#ebedf0"><title>2025-09-16: 0 contributions</title></rect>
<rect x="269" y="45" width="11" height="11" rx="2" ry="2" fill="#ebedf0"><title>2025-09-17: 0 contributions</title></rect>
<rect x="269" y="59" width="11" height="11" rx="2" ry="2" fill="#ebedf0"><title>2025-09-18: 0 contributions</title></rect>
<rect x="269" y="73" width="11" height="11" rx="2" ry="2" fill="#ebedf0"><title>2025-09-19: 0 contributions</title></rect>
<rect x="269" y="87" width="11" height="11" rx="2" ry="2" fill="#ebedf0"><title>2025-09-20: 0 contributions</title></rect>
<rect x="283" y="3" width="11" height="11" rx="2" ry="2" fill="#ebedf0"><title>2025-09-21: 0 contributions</title></rect>
<rect x="283" y="17" width="11" height="11" rx="2" ry="2" fill="#c8e6c9"><title>2025-09-22: 2 contributions</title></rect>
<rect x="283" y="31" width="11" height="11" rx="2" ry="2" fill="#ebedf0"><title>2025-09-23: 0 contributions</title></rect>
<rect x="283" y="45" width="11" height="11" rx="2" ry="2" fill="#c8e6c9"><title>2025-09-24: 3 contributions</title></rect>
<rect x="283" y="59" width="11" height="11" rx="2" ry="2" fill="#ebedf0"><title>2025-09-25: 0 contributions</title></rect>
<rect x="283" y="73" width="11" height="11" rx="2" ry="2" fill="#ebedf0"><title>2025-09-26: 0 contributions</title></rect>
<rect x="283" y="87" width="11" height="11" rx="2" ry="2" fill="#ebedf0"><title>2025-09-27: 0 contributions</title></rect>
<rect x="297" y="3" width="11" height="11" rx="2" ry="2" fill="#ebedf0"><title>2025-09-28: 0 contributions</title></rect>
<rect x="297" y="17" width="11" height="11" rx="2" ry="2" fill="#c8e6c9"><title>2025-09-29: 2 contributions</title></rect>
<rect x="297" y="31" width="11" height="11" rx="2" ry="2" fill="#c8e6c9"><title>2025-09-30: 1 contribution</title></rect>
<rect x="297" y="45" width="11" height="11" rx="2" ry="2" fill="#ebedf0"><title>2025-10-01: 0 contributions</title></rect>
<rect x="297" y="59" width="11" height="11" rx="2" ry="2" fill="#ebedf0"><title>2025-10-02: 0 contributions</title></rect>
<rect x="297" y="73" width="11" height="11" rx="2" ry="2" fill="#c8e6c9"><title>2025-10-03: 3 contributions</title></rect>
<rect x="297" y="87" width="11" height="11" rx="2" ry="2" fill="#ebedf0"><title>2025-10-04: 0 contributions</title></rect>
<rect x="311" y="3" width="11" height="11" rx="2" ry="2" fill="#ebedf0"><title>2025-10-05: 0 contributions</title></rect>
<rect x="311" y="17" width="11" height="11" rx="2" ry="2" fill="#a5d6a7"><title>2025-10-06: 4 contributions</title></rect>
<rect x="311" y="31" width="11" height="11" rx="2" ry="2" fill="#c8e6c9"><title>2025-10-07: 3 contributions</title></rect>
<rect x="311" y="45" width="11" height="11" rx="2" ry="2" fill="#c8e6c9"><title>2025-10-08: 3 contributions</title></rect>
<rect x="311" y="59" width="11" height="11" rx="2" ry="2" fill="#c8e6c9"><title>2025-10-09: 1 contribution</title></rect>
<rect x="311" y="73" width="11" height="11" rx="2" ry="2" fill="#ebedf0"><title>2025-10-10: 0 contributions</title></rect>
<rect x="311" y="87" width="11" height="11" rx="2" ry="2" fill="#ebedf0"><title>2025-10-11: 0 contributions</title></rect>
<rect x="325" y="3" width="11" height="11" rx="2" ry="2" fill="#ebedf0"><title>2025-10-12: 0 contributions</title></rect>
<rect x="325" y="17" width="11" height="11" rx="2" ry="2" fill="#ebedf0"><title>2025-10-13: 0 contributions</title></rect>
<rect x="325" y="31" width="11" height="11" rx="2" ry="2" fill="#a5d6a7"><title>2025-10-14: 5 contributions</title></rect>
<rect x="325" y="45" width="11" height="11" rx="2" ry="2" fill="#c8e6c9"><title>2025-10-15: 2 contributions</title></rect>
<rect x="325" y="59" width="11" height="11" rx="2" ry="2" fill="#ebedf0"><title>2025-10-16: 0 contributions</title></rect>
<rect x="325" y="73" width="11" height="11" rx="2" ry="2" fill="#ebedf0"><title>2025-10-17: 0 contributions</title></rect>
<rect x="325" y="87" width="11" height="11" rx="2" ry="2" fill="#ebedf0"><title>2025-10-18: 0 contributions</title></rect>
<rect x="339" y="3" width="11" height="11" rx="2" ry="2" fill="#ebedf0"><title>2025-10-19: 0 contributions</title></rect>
<rect x="339" y="17" width="11" height="11" rx="2" ry="2" fill="#c8e6c9"><title>2025-10-20: 2 contributions</title></rect>
<rect x="339" y="31" width="11" height="11" rx="2" ry="2" fill="#c8e6c9"><title>2025-10-21: 1 contribution</title></rect>
<rect x="339" y="45" width="11" height="11" rx="2" ry="2" fill="#c8e6c9"><title>2025-10-22: 3 contributions</title></rect>
<rect x="339" y="59" width="11" height="11" rx="2" ry="2" fill="#a5d6a7"><title>2025-10-23: 7 contributions</title></rect>
<rect x="339" y="73" width="11" height="11" rx="2" ry="2" fill="#81c784"><title>2025-10-24: 8 contributions</title></rect>
<rect x="339" y="87" width="11" height="11" rx="2" ry="2" fill="#ebedf0"><title>2025-10-25: 0 contributions</title></rect>
<rect x="353" y="3" width="11" height="11" rx="2" ry="2" fill="#ebedf0"><title>2025-10-26: 0 contributions</title></rect>
<rect x="353" y="17" width="11" height="11" rx="2" ry="2" fill="#ebedf0"><title>2025-10-27: 0 contributions</title></rect>
<rect x="353" y="31" width="11" height="11" rx="2" ry="2" fill="#c8e6c9"><title>2025-10-28: 2 contributions</title></rect>
<rect x="353" y="45" width="11" height="11" rx="2" ry="2" fill="#81c784"><title>2025-10-29: 12 contributions</title></rect>
<rect x="353" y="59" width="11" height="11" rx="2" ry="2" fill="#a5d6a7"><title>2025-10-30: 4 contributions</title></rect>
<rect x="353" y="73" width="11" height="11" rx="2" ry="2" fill="#a5d6a7"><title>2025-10-31: 6 contributions</title></rect>
<rect x="353" y="87" width="11" height="11" rx="2" ry="2" fill="#ebedf0"><title>2025-11-01: 0 contributions</title></rect>
<rect x="367" y="3" width="11" height="11" rx="2" ry="2" fill="#c8e6c9"><title>2025-11-02: 1 contribution</title></rect>
<rect x="367" y="17" width="11" height="11" rx="2" ry="2" fill="#81c784"><title>2025-11-03: 8 contributions</title></rect>
<rect x="367" y="31" width="11" height="11" rx="2" ry="2" fill="#66bb6a"><title>2025-11-04: 27 contributions</title></rect>
<rect x="367" y="45" width="11" height="11" rx="2" ry="2" fill="#66bb6a"><title>2025-11-05: 14 contributions</title></rect>
<rect x="367" y="59" width="11" height="11" rx="2" ry="2" fill="#a5d6a7"><title>2025-11-06: 5 contributions</title></rect>
<rect x="367" y="73" width="11" height="11" rx="2" ry="2" fill="#c8e6c9"><title>2025-11-07: 1 contribution</title></rect>
<rect x="367" y="87" width="11" height="11" rx="2" ry="2" fill="#ebedf0"><title>2025-11-08: 0 contributions</title></rect>
<rect x="381" y="3" width="11" height="11" rx="2" ry="2" fill="#ebedf0"><title>2025-11-09: 0 contributions</title></rect>
<rect x="381" y="17" width="11" height="11" rx="2" ry="2" fill="#ebedf0"><title>2025-11-10: 0 contributions</title></rect>
<rect x="381" y="31" width="11" height="11" rx="2" ry="2" fill="#81c784"><title>2025-11-11: 9 contributions</title></rect>
<rect x="381" y="45" width="11" height="11" rx="2" ry="2" fill="#66bb6a"><title>2025-11-12: 14 contributions</title></rect>
<rect x="381" y="59" width="11" height="11" rx="2" ry="2" fill="#ebedf0"><title>2025-11-13: 0 contributions</title></rect>
<rect x="381" y="73" width="11" height="11" rx="2" ry="2" fill="#ebedf0"><title>2025-11-14: 0 contributions</title></rect>
<rect x="381" y="87" width="11" height="11" rx="2" ry="2" fill="#ebedf0"><title>2025-11-15: 0 contributions</title></rect>
<rect x="395" y="3" width="11" height="11" rx="2" ry="2" fill="#ebedf0"><title>2025-11-16: 0 contributions</title></rect>
<rect x="395" y="17" width="11" height="11" rx="2" ry="2" fill="#ebedf0"><title>2025-11-17: 0 contributions</title></rect>
<rect x="395" y="31" width="11" height="11" rx="2" ry="2" fill="#ebedf0"><title>2025-11-18: 0 contributions</title></rect>
<rect x="395" y="45" width="11" height="11" rx="2" ry="2" fill="#66bb6a"><title>2025-11-19: 14 contributions</title></rect>
<rect x="395" y="59" width="11" height="11" rx="2" ry="2" fill="#81c784"><title>2025-11-20: 10 contributions</title></rect>
<rect x="395" y="73" width="11" height="11" rx="2" ry="2" fill="#c8e6c9"><title>2025-11-21: 2 contributions</title></rect>
<rect x="395" y="87" width="11" height="11" rx="2" ry="2" fill="#ebedf0"><title>2025-11-22: 0 contributions</title></rect>
<rect x="409" y="3" width="11" height="11" rx="2" ry="2" fill="#ebedf0"><title>2025-11-23: 0 contributions</title></rect>
<rect x="409" y="17" width="11" height="11" rx="2" ry="2" fill="#81c784"><title>2025-11-24: 9 contributions</title></rect>
<rect x="409" y="31" width="11" height="11" rx="2" ry="2" fill="#66bb6a"><title>2025-11-25: 13 contributions</title></rect>
<rect x="409" y="45" width="11" height="11" rx="2" ry="2" fill="#81c784"><title>2025-11-26: 9 contributions</title></rect>
<rect x="409" y="59" width="11" height="11" rx="2" ry="2" fill="#c8e6c9"><title>2025-11-27: 2 contributions</title></rect>
<rect x="409" y="73" width="11" height="11" rx="2" ry="2" fill="#66bb6a"><title>2025-11-28: 13 contributions</title></rect>
<rect x="409" y="87" width="11" height="11" rx="2" ry="2" fill="#ebedf0"><title>2025-11-29: 0 contributions</title></rect>
<rect x="423" y="3" width="11" height="11" rx="2" ry="2" fill="#ebedf0"><title>2025-11-30: 0 contributions</title></rect>
<rect x="423" y="17" width="11" height="11" rx="2" ry="2" fill="#a5d6a7"><title>2025-12-01: 4 contributions</title></rect>
<rect x="423" y="31" width="11" height="11" rx="2" ry="2" fill="#c8e6c9"><title>2025-12-02: 1 contribution</title></rect>
<rect x="423" y="45" width="11" height="11" rx="2" ry="2" fill="#81c784"><title>2025-12-03: 11 contributions</title></rect>
<rect x="423" y="59" width="11" height="11" rx="2" ry="2" fill="#c8e6c9"><title>2025-12-04: 1 contribution</title></rect>
<rect x="423" y="73" width="11" height="11" rx="2" ry="2" fill="#a5d6a7"><title>2025-12-05: 4 contributions</title></rect>
<rect x="423" y="87" width="11" height="11" rx="2" ry="2" fill="#ebedf0"><title>2025-12-06: 0 contributions</title></rect>
<rect x="437" y="3" width="11" height="11" rx="2" ry="2" fill="#ebedf0"><title>2025-12-07: 0 contributions</title></rect>
<rect x="437" y="17" width="11" height="11" rx="2" ry="2" fill="#ebedf0"><title>2025-12-08: 0 contributions</title></rect>
<rect x="437" y="31" width="11" height="11" rx="2" ry="2" fill="#ebedf0"><title>2025-12-09: 0 contributions</title></rect>
<rect x="437" y="45" width="11" height="11" rx="2" ry="2" fill="#ebedf0"><title>2025-12-10: 0 contributions</title></rect>
<rect x="437" y="59" width="11" height="11" rx="2" ry="2" fill="#c8e6c9"><title>2025-12-11: 2 contributions</title></rect>
<rect x="437" y="73" width="11" height="11" rx="2" ry="2" fill="#66bb6a"><title>2025-12-12: 23 contributions</title></rect>
<rect x="437" y="87" width="11" height="11" rx="2" ry="2" fill="#ebedf0"><title>2025-12-13: 0 contributions</title></rect>
<rect x="451" y="3" width="11" height="11" rx="2" ry="2" fill="#ebedf0"><title>2025-12-14: 0 contributions</title></rect>
<rect x="451" y="17" width="11" height="11" rx="2" ry="2" fill="#c8e6c9"><title>2025-12-15: 1 contribution</title></rect>
<rect x="451" y="31" width="11" height="11" rx="2" ry="2" fill="#a5d6a7"><title>2025-12-16: 7 contributions</title></rect>
<rect x="451" y="45" width="11" height="11" rx="2" ry="2" fill="#c8e6c9"><title>2025-12-17: 2 contributions</title></rect>
<rect x="451" y="59" width="11" height="11" rx="2" ry="2" fill="#c8e6c9"><title>2025-12-18: 1 contribution</title></rect>
<rect x="451" y="73" width="11" height="11" rx="2" ry="2" fill="#a5d6a7"><title>2025-12-19: 6 contributions</title></rect>
<rect x="451" y="87" width="11" height="11" rx="2" ry="2" fill="#ebedf0"><title>2025-12-20: 0 contributions</title></rect>
<rect x="465" y="3" width="11" height="11" rx="2" ry="2" fill="#ebedf0"><title>2025-12-21: 0 contributions</title></rect>
<rect x="465" y="17" width="11" height="11" rx="2" ry="2" fill="#ebedf0"><title>2025-12-22: 0 contributions</title></rect>
<rect x="465" y="31" width="11" height="11" rx="2" ry="2" fill="#ebedf0"><title>2025-12-23: 0 contributions</title></rect>
<rect x="465" y="45" width="11" height="11" rx="2" ry="2" fill="#ebedf0"><title>2025-12-24: 0 contributions</title></rect>
<rect x="465" y="59" width="11" height="11" rx="2" ry="2" fill="#ebedf0"><title>2025-12-25: 0 contributions</title></rect>
<rect x="465" y="73" width="11" height="11" rx="2" ry="2" fill="#ebedf0"><title>2025-12-26: 0 contributions</title></rect>
<rect x="465" y="87" width="11" height="11" rx="2" ry="2" fill="#ebedf0"><title>2025-12-27: 0 contributions</title></rect>
<rect x="479" y="3" width="11" height="11" rx="2" ry="2" fill="#ebedf0"><title>2025-12-28: 0 contributions</title></rect>
<rect x="479" y="17" width="11" height="11" rx="2" ry="2" fill="#ebedf0"><title>2025-12-29: 0 contributions</title></rect>
<rect x="479" y="31" width="11" height="11" rx="2" ry="2" fill="#ebedf0"><title>2025-12-30: 0 contributions</title></rect>
<rect x="479" y="45" width="11" height="11" rx="2" ry="2" fill="#ebedf0"><title>2025-12-31: 0 contributions</title></rect>
<rect x="479" y="59" width="11" height="11" rx="2" ry="2" fill="#ebedf0"><title>2026-01-01: 0 contributions</title></rect>
<rect x="479" y="73" width="11" height="11" rx="2" ry="2" fill="#ebedf0"><title>2026-01-02: 0 contributions</title></rect>
<rect x="479" y="87" width="11" height="11" rx="2" ry="2" fill="#ebedf0"><title>2026-01-03: 0 contributions</title></rect>
<rect x="493" y="3" width="11" height="11" rx="2" ry="2" fill="#ebedf0"><title>2026-01-04: 0 contributions</title></rect>
<rect x="493" y="17" width="11" height="11" rx="2" ry="2" fill="#66bb6a"><title>2026-01-05: 16 contributions</title></rect>
<rect x="493" y="31" width="11" height="11" rx="2" ry="2" fill="#c8e6c9"><title>2026-01-06: 1 contribution</title></rect>
<rect x="493" y="45" width="11" height="11" rx="2" ry="2" fill="#ebedf0"><title>2026-01-07: 0 contributions</title></rect>
<rect x="493" y="59" width="11" height="11" rx="2" ry="2" fill="#ebedf0"><title>2026-01-08: 0 contributions</title></rect>
<rect x="493" y="73" width="11" height="11" rx="2" ry="2" fill="#ebedf0"><title>2026-01-09: 0 contributions</title></rect>
<rect x="493" y="87" width="11" height="11" rx="2" ry="2" fill="#ebedf0"><title>2026-01-10: 0 contributions</title></rect>
<rect x="507" y="3" width="11" height="11" rx="2" ry="2" fill="#ebedf0"><title>2026-01-11: 0 contributions</title></rect>
<rect x="507" y="17" width="11" height="11" rx="2" ry="2" fill="#ebedf0"><title>2026-01-12: 0 contributions</title></rect>
<rect x="507" y="31" width="11" height="11" rx="2" ry="2" fill="#ebedf0"><title>2026-01-13: 0 contributions</title></rect>
<rect x="507" y="45" width="11" height="11" rx="2" ry="2" fill="#c8e6c9"><title>2026-01-14: 2 contributions</title></rect>
<rect x="507" y="59" width="11" height="11" rx="2" ry="2" fill="#c8e6c9"><title>2026-01-15: 2 contributions</title></rect>
<rect x="507" y="73" width="11" height="11" rx="2" ry="2" fill="#c8e6c9"><title>2026-01-16: 2 contributions</title></rect>
<rect x="507" y="87" width="11" height="11" rx="2" ry="2" fill="#ebedf0"><title>2026-01-17: 0 contributions</title></rect>
<rect x="521" y="3" width="11" height="11" rx="2" ry="2" fill="#ebedf0"><title>2026-01-18: 0 contributions</title></rect>
<rect x="521" y="17" width="11" height="11" rx="2" ry="2" fill="#c8e6c9"><title>2026-01-19: 1 contribution</title></rect>
<rect x="521" y="31" width="11" height="11" rx="2" ry="2" fill="#c8e6c9"><title>2026-01-20: 2 contributions</title></rect>
<rect x="521" y="45" width="11" height="11" rx="2" ry="2" fill="#a5d6a7"><title>2026-01-21: 6 contributions</title></rect>
<rect x="521" y="59" width="11" height="11" rx="2" ry="2" fill="#c8e6c9"><title>2026-01-22: 2 contributions</title></rect>
<rect x="521" y="73" width="11" height="11" rx="2" ry="2" fill="#c8e6c9"><title>2026-01-23: 2 contributions</title></rect>
<rect x="521" y="87" width="11" height="11" rx="2" ry="2" fill="#ebedf0"><title>2026-01-24: 0 contributions</title></rect>
<rect x="535" y="3" width="11" height="11" rx="2" ry="2" fill="#ebedf0"><title>2026-01-25: 0 contributions</title></rect>
<rect x="535" y="17" width="11" height="11" rx="2" ry="2" fill="#ebedf0"><title>2026-01-26: 0 contributions</title></rect>
<rect x="535" y="31" width="11" height="11" rx="2" ry="2" fill="#ebedf0"><title>2026-01-27: 0 contributions</title></rect>
<rect x="535" y="45" width="11" height="11" rx="2" ry="2" fill="#ebedf0"><title>2026-01-28: 0 contributions</title></rect>
<rect x="535" y="59" width="11" height="11" rx="2" ry="2" fill="#a5d6a7"><title>2026-01-29: 6 contributions</title></rect>
<rect x="535" y="73" width="11" height="11" rx="2" ry="2" fill="#c8e6c9"><title>2026-01-30: 3 contributions</title></rect>
<rect x="535" y="87" width="11" height="11" rx="2" ry="2" fill="#ebedf0"><title>2026-01-31: 0 contributions</title></rect>
<rect x="549" y="3" width="11" height="11" rx="2" ry="2" fill="#ebedf0"><title>2026-02-01: 0 contributions</title></rect>
<rect x="549" y="17" width="11" height="11" rx="2" ry="2" fill="#ebedf0"><title>2026-02-02: 0 contributions</title></rect>
<rect x="549" y="31" width="11" height="11" rx="2" ry="2" fill="#c8e6c9"><title>2026-02-03: 3 contributions</title></rect>
<rect x="549" y="45" width="11" height="11" rx="2" ry="2" fill="#81c784"><title>2026-02-04: 8 contributions</title></rect>
<rect x="549" y="59" width="11" height="11" rx="2" ry="2" fill="#a5d6a7"><title>2026-02-05: 5 contributions</title></rect>
<rect x="549" y="73" width="11" height="11" rx="2" ry="2" fill="#66bb6a"><title>2026-02-06: 14 contributions</title></rect>
<rect x="549" y="87" width="11" height="11" rx="2" ry="2" fill="#ebedf0"><title>2026-02-07: 0 contributions</title></rect>
<rect x="563" y="3" width="11" height="11" rx="2" ry="2" fill="#ebedf0"><title>2026-02-08: 0 contributions</title></rect>
<rect x="563" y="17" width="11" height="11" rx="2" ry="2" fill="#ebedf0"><title>2026-02-09: 0 contributions</title></rect>
<rect x="563" y="31" width="11" height="11" rx="2" ry="2" fill="#81c784"><title>2026-02-10: 9 contributions</title></rect>
<rect x="563" y="45" width="11" height="11" rx="2" ry="2" fill="#ebedf0"><title>2026-02-11: 0 contributions</title></rect>
<rect x="563" y="59" width="11" height="11" rx="2" ry="2" fill="#ebedf0"><title>2026-02-12: 0 contributions</title></rect>
<rect x="563" y="73" width="11" height="11" rx="2" ry="2" fill="#a5d6a7"><title>2026-02-13: 7 contributions</title></rect>
<rect x="563" y="87" width="11" height="11" rx="2" ry="2" fill="#ebedf0"><title>2026-02-14: 0 contributions</title></rect>
<rect x="577" y="3" width="11" height="11" rx="2" ry="2" fill="#ebedf0"><title>2026-02-15: 0 contributions</title></rect>
<rect x="577" y="17" width="11" height="11" rx="2" ry="2" fill="#c8e6c9"><title>2026-02-16: 2 contributions</title></rect>
<rect x="577" y="31" width="11" height="11" rx="2" ry="2" fill="#c8e6c9"><title>2026-02-17: 1 contribution</title></rect>
<rect x="577" y="45" width="11" height="11" rx="2" ry="2" fill="#a5d6a7"><title>2026-02-18: 5 contributions</title></rect>
<rect x="577" y="59" width="11" height="11" rx="2" ry="2" fill="#a5d6a7"><title>2026-02-19: 6 contributions</title></rect>
<rect x="577" y="73" width="11" height="11" rx="2" ry="2" fill="#81c784"><title>2026-02-20: 8 contributions</title></rect>
<rect x="577" y="87" width="11" height="11" rx="2" ry="2" fill="#ebedf0"><title>2026-02-21: 0 contributions</title></rect>
<rect x="591" y="3" width="11" height="11" rx="2" ry="2" fill="#ebedf0"><title>2026-02-22: 0 contributions</title></rect>
<rect x="591" y="17" width="11" height="11" rx="2" ry="2" fill="#ebedf0"><title>2026-02-23: 0 contributions</title></rect>
<rect x="591" y="31" width="11" height="11" rx="2" ry="2" fill="#c8e6c9"><title>2026-02-24: 2 contributions</title></rect>
<rect x="591" y="45" width="11" height="11" rx="2" ry="2" fill="#ebedf0"><title>2026-02-25: 0 contributions</title></rect>
<rect x="591" y="59" width="11" height="11" rx="2" ry="2" fill="#ebedf0"><title>2026-02-26: 0 contributions</title></rect>
<rect x="591" y="73" width="11" height="11" rx="2" ry="2" fill="#ebedf0"><title>2026-02-27: 0 contributions</title></rect>
<rect x="591" y="87" width="11" height="11" rx="2" ry="2" fill="#ebedf0"><title>2026-02-28: 0 contributions</title></rect>
<rect x="605" y="3" width="11" height="11" rx="2" ry="2" fill="#ebedf0"><title>2026-03-01: 0 contributions</title></rect>
<rect x="605" y="17" width="11" height="11" rx="2" ry="2" fill="#c8e6c9"><title>2026-03-02: 3 contributions</title></rect>
<rect x="605" y="31" width="11" height="11" rx="2" ry="2" fill="#81c784"><title>2026-03-03: 12 contributions</title></rect>
<rect x="605" y="45" width="11" height="11" rx="2" ry="2" fill="#66bb6a"><title>2026-03-04: 24 contributions</title></rect>
<rect x="605" y="59" width="11" height="11" rx="2" ry="2" fill="#66bb6a"><title>2026-03-05: 19 contributions</title></rect>
<rect x="605" y="73" width="11" height="11" rx="2" ry="2" fill="#66bb6a"><title>2026-03-06: 22 contributions</title></rect>
<rect x="605" y="87" width="11" height="11" rx="2" ry="2" fill="#ebedf0"><title>2026-03-07: 0 contributions</title></rect>
<rect x="619" y="3" width="11" height="11" rx="2" ry="2" fill="#ebedf0"><title>2026-03-08: 0 contributions</title></rect>
<rect x="619" y="17" width="11" height="11" rx="2" ry="2" fill="#c8e6c9"><title>2026-03-09: 3 contributions</title></rect>
<rect x="619" y="31" width="11" height="11" rx="2" ry="2" fill="#81c784"><title>2026-03-10: 9 contributions</title></rect>
<rect x="619" y="45" width="11" height="11" rx="2" ry="2" fill="#a5d6a7"><title>2026-03-11: 5 contributions</title></rect>
<rect x="619" y="59" width="11" height="11" rx="2" ry="2" fill="#c8e6c9"><title>2026-03-12: 2 contributions</title></rect>
<rect x="619" y="73" width="11" height="11" rx="2" ry="2" fill="#66bb6a"><title>2026-03-13: 26 contributions</title></rect>
<rect x="619" y="87" width="11" height="11" rx="2" ry="2" fill="#81c784"><title>2026-03-14: 10 contributions</title></rect>
<rect x="633" y="3" width="11" height="11" rx="2" ry="2" fill="#ebedf0"><title>2026-03-15: 0 contributions</title></rect>
<rect x="633" y="17" width="11" height="11" rx="2" ry="2" fill="#a5d6a7"><title>2026-03-16: 6 contributions</title></rect>
<rect x="633" y="31" width="11" height="11" rx="2" ry="2" fill="#a5d6a7"><title>2026-03-17: 4 contributions</title></rect>
<rect x="633" y="45" width="11" height="11" rx="2" ry="2" fill="#c8e6c9"><title>2026-03-18: 2 contributions</title></rect>
<rect x="633" y="59" width="11" height="11" rx="2" ry="2" fill="#c8e6c9"><title>2026-03-19: 1 contribution</title></rect>
<rect x="633" y="73" width="11" height="11" rx="2" ry="2" fill="#ebedf0"><title>2026-03-20: 0 contributions</title></rect>
<rect x="633" y="87" width="11" height="11" rx="2" ry="2" fill="#ebedf0"><title>2026-03-21: 0 contributions</title></rect>
<rect x="647" y="3" width="11" height="11" rx="2" ry="2" fill="#ebedf0"><title>2026-03-22: 0 contributions</title></rect>
<rect x="647" y="17" width="11" height="11" rx="2" ry="2" fill="#66bb6a"><title>2026-03-23: 29 contributions</title></rect>
<rect x="647" y="31" width="11" height="11" rx="2" ry="2" fill="#c8e6c9"><title>2026-03-24: 2 contributions</title></rect>
<rect x="647" y="45" width="11" height="11" rx="2" ry="2" fill="#c8e6c9"><title>2026-03-25: 1 contribution</title></rect>
<rect x="647" y="59" width="11" height="11" rx="2" ry="2" fill="#ebedf0"><title>2026-03-26: 0 contributions</title></rect>
<rect x="647" y="73" width="11" height="11" rx="2" ry="2" fill="#c8e6c9"><title>2026-03-27: 2 contributions</title></rect>
<rect x="647" y="87" width="11" height="11" rx="2" ry="2" fill="#ebedf0"><title>2026-03-28: 0 contributions</title></rect>
<rect x="661" y="3" width="11" height="11" rx="2" ry="2" fill="#ebedf0"><title>2026-03-29: 0 contributions</title></rect>
<rect x="661" y="17" width="11" height="11" rx="2" ry="2" fill="#66bb6a"><title>2026-03-30: 19 contributions</title></rect>
<rect x="661" y="31" width="11" height="11" rx="2" ry="2" fill="#66bb6a"><title>2026-03-31: 14 contributions</title></rect>
<rect x="661" y="45" width="11" height="11" rx="2" ry="2" fill="#81c784"><title>2026-04-01: 9 contributions</title></rect>
<rect x="661" y="59" width="11" height="11" rx="2" ry="2" fill="#a5d6a7"><title>2026-04-02: 7 contributions</title></rect>
<rect x="661" y="73" width="11" height="11" rx="2" ry="2" fill="#ebedf0"><title>2026-04-03: 0 contributions</title></rect>
<rect x="661" y="87" width="11" height="11" rx="2" ry="2" fill="#ebedf0"><title>2026-04-04: 0 contributions</title></rect>
<rect x="675" y="3" width="11" height="11" rx="2" ry="2" fill="#ebedf0"><title>2026-04-05: 0 contributions</title></rect>
<rect x="675" y="17" width="11" height="11" rx="2" ry="2" fill="#ebedf0"><title>2026-04-06: 0 contributions</title></rect>
<rect x="675" y="31" width="11" height="11" rx="2" ry="2" fill="#ebedf0"><title>2026-04-07: 0 contributions</title></rect>
<rect x="675" y="45" width="11" height="11" rx="2" ry="2" fill="#ebedf0"><title>2026-04-08: 0 contributions</title></rect>
<rect x="675" y="59" width="11" height="11" rx="2" ry="2" fill="#ebedf0"><title>2026-04-09: 0 contributions</title></rect>
<rect x="675" y="73" width="11" height="11" rx="2" ry="2" fill="#66bb6a"><title>2026-04-10: 15 contributions</title></rect>
<rect x="675" y="87" width="11" height="11" rx="2" ry="2" fill="#ebedf0"><title>2026-04-11: 0 contributions</title></rect>
<rect x="689" y="3" width="11" height="11" rx="2" ry="2" fill="#ebedf0"><title>2026-04-12: 0 contributions</title></rect>
<rect x="689" y="17" width="11" height="11" rx="2" ry="2" fill="#ebedf0"><title>2026-04-13: 0 contributions</title></rect>
<rect x="689" y="31" width="11" height="11" rx="2" ry="2" fill="#ebedf0"><title>2026-04-14: 0 contributions</title></rect>
<rect x="689" y="45" width="11" height="11" rx="2" ry="2" fill="#c8e6c9"><title>2026-04-15: 3 contributions</title></rect>
<rect x="689" y="59" width="11" height="11" rx="2" ry="2" fill="#ebedf0"><title>2026-04-16: 0 contributions</title></rect>
<rect x="689" y="73" width="11" height="11" rx="2" ry="2" fill="#81c784"><title>2026-04-17: 8 contributions</title></rect>
<rect x="689" y="87" width="11" height="11" rx="2" ry="2" fill="#ebedf0"><title>2026-04-18: 0 contributions</title></rect>
<rect x="703" y="3" width="11" height="11" rx="2" ry="2" fill="#ebedf0"><title>2026-04-19: 0 contributions</title></rect>
<rect x="703" y="17" width="11" height="11" rx="2" ry="2" fill="#ebedf0"><title>2026-04-20: 0 contributions</title></rect>
<rect x="703" y="31" width="11" height="11" rx="2" ry="2" fill="#c8e6c9"><title>2026-04-21: 3 contributions</title></rect>
<rect x="703" y="45" width="11" height="11" rx="2" ry="2" fill="#a5d6a7"><title>2026-04-22: 4 contributions</title></rect>
<rect x="703" y="59" width="11" height="11" rx="2" ry="2" fill="#a5d6a7"><title>2026-04-23: 5 contributions</title></rect>
<rect x="703" y="73" width="11" height="11" rx="2" ry="2" fill="#a5d6a7"><title>2026-04-24: 7 contributions</title></rect>
<rect x="703" y="87" width="11" height="11" rx="2" ry="2" fill="#c8e6c9"><title>2026-04-25: 3 contributions</title></rect>
<rect x="717" y="3" width="11" height="11" rx="2" ry="2" fill="#ebedf0"><title>2026-04-26: 0 contributions</title></rect>
<rect x="717" y="17" width="11" height="11" rx="2" ry="2" fill="#81c784"><title>2026-04-27: 8 contributions</title></rect>
<rect x="717" y="31" width="11" height="11" rx="2" ry="2" fill="#81c784"><title>2026-04-28: 8 contributions</title></rect>
<rect x="717" y="45" width="11" height="11" rx="2" ry="2" fill="#a5d6a7"><title>2026-04-29: 4 contributions</title></rect>
<rect x="717" y="59" width="11" height="11" rx="2" ry="2" fill="#ebedf0"><title>2026-04-30: 0 contributions</title></rect>
<rect x="717" y="73" width="11" height="11" rx="2" ry="2" fill="#ebedf0"><title>2026-05-01: 0 contributions</title></rect>
<rect x="717" y="87" width="11" height="11" rx="2" ry="2" fill="#ebedf0"><title>2026-05-02: 0 contributions</title></rect>
<rect x="731" y="3" width="11" height="11" rx="2" ry="2" fill="#81c784"><title>2026-05-03: 8 contributions</title></rect>
<rect x="731" y="17" width="11" height="11" rx="2" ry="2" fill="#ebedf0"><title>2026-05-04: 0 contributions</title></rect>
<rect x="731" y="31" width="11" height="11" rx="2" ry="2" fill="#c8e6c9"><title>2026-05-05: 2 contributions</title></rect>
<rect x="731" y="45" width="11" height="11" rx="2" ry="2" fill="#66bb6a"><title>2026-05-06: 44 contributions</title></rect>
<rect x="731" y="59" width="11" height="11" rx="2" ry="2" fill="#a5d6a7"><title>2026-05-07: 5 contributions</title></rect>
<rect x="731" y="73" width="11" height="11" rx="2" ry="2" fill="#66bb6a"><title>2026-05-08: 40 contributions</title></rect>
<rect x="731" y="87" width="11" height="11" rx="2" ry="2" fill="#66bb6a"><title>2026-05-09: 17 contributions</title></rect>
</svg>
